<svg width="38" height="38" viewBox="0 0 38 38" fill="none" xmlns="http://www.w3.org/2000/svg">
<circle cx="19" cy="19" r="19" fill="#91FFF8"/>
<path d="M1.1875 14.8438L1.40165 14.3441C3.82059 8.69988 11.2376 7.39514 15.4375 11.875V11.875V11.875C20.0396 17.4633 28.2865 18.2964 33.9132 13.7414L36.2188 11.875L36.8125 15.4375L37.4062 21.9688L34.4375 28.5L7.125 32.6562L2.96875 27.9062L0.59375 21.375L1.1875 14.8438Z" fill="#00BEBE"/>
<path d="M33.9375 29.0938C33.9375 29.6387 33.5852 30.4426 32.8137 31.3878C32.0586 32.3129 30.9582 33.304 29.6006 34.2148C26.883 36.0381 23.1948 37.5 19.3032 37.5C15.4091 37.5 11.5659 36.0363 8.6924 34.2082C7.25734 33.2952 6.08104 32.3019 5.27 31.3747C4.43854 30.4242 4.0625 29.6254 4.0625 29.0938C4.0625 28.6073 4.3911 28.0419 5.19359 27.4403C5.98274 26.8487 7.14236 26.2917 8.58176 25.8132C11.4552 24.8578 15.336 24.25 19.3032 24.25C23.2703 24.25 26.9962 24.8578 29.7138 25.8105C31.0749 26.2878 32.1566 26.8424 32.8879 27.43C33.6266 28.0236 33.9375 28.5903 33.9375 29.0938Z" fill="#14485E" stroke="white"/>
<path d="M33.9375 20.7812C33.9375 22.4906 33.4329 24.0178 32.6419 25.1055C31.8505 26.1936 30.7998 26.8125 29.6875 26.8125C28.5752 26.8125 27.5245 26.1936 26.7331 25.1055C25.9421 24.0178 25.4375 22.4906 25.4375 20.7812C25.4375 19.0719 25.9421 17.5447 26.7331 16.457C27.5245 15.3689 28.5752 14.75 29.6875 14.75C30.7998 14.75 31.8505 15.3689 32.6419 16.457C33.4329 17.5447 33.9375 19.0719 33.9375 20.7812Z" fill="#14485E" stroke="white"/>
<path d="M12.5625 20.7812C12.5625 22.4906 12.0579 24.0178 11.2669 25.1055C10.4755 26.1936 9.4248 26.8125 8.3125 26.8125C7.2002 26.8125 6.14947 26.1936 5.35811 25.1055C4.56711 24.0178 4.0625 22.4906 4.0625 20.7812C4.0625 19.0719 4.56711 17.5447 5.35811 16.457C6.14947 15.3689 7.2002 14.75 8.3125 14.75C9.4248 14.75 10.4755 15.3689 11.2669 16.457C12.0579 17.5447 12.5625 19.0719 12.5625 20.7812Z" fill="#14485E" stroke="white"/>
<circle cx="19" cy="20.1875" r="11.375" fill="#14485E" stroke="white"/>
<circle cx="19" cy="20.1875" r="5.4375" fill="#00BEBE" stroke="white"/>
<circle cx="22.5625" cy="5.9375" r="2.375" fill="#00BEBE"/>
<circle cx="23.1562" cy="12.4688" r="1.78125" fill="#00BEBE"/>
<circle cx="20.1875" cy="19" r="2.375" fill="white"/>
<circle cx="24.9375" cy="9.5" r="1.1875" fill="#00BEBE"/>
<circle cx="19" cy="19" r="18.5" stroke="white"/>
</svg>
